<svg aria-hidden="true" style="position:absolute;width:0;height:0;overflow:hidden" xmlns="http://www.w3.org/2000/svg"><defs><symbol id="icon-app_development_computer_mobile_settings_cogwheel_icon_193952-1" viewBox="0 0 32 32"><path fill="#2c3d49" style="fill:var(--color2, #2c3d49)" d="M2.716 5.448c-.405 0-.759.218-.988.514s-.353.675-.353 1.086v.189h19.789a2.365 2.365 0 0 1 2.365 2.365v2.995h2.606V7.049c0-.411-.125-.79-.353-1.086s-.587-.514-.992-.514z"/><path fill="#aabfd1" style="fill:var(--color3, #aabfd1)" d="M13.25 7.453a.82.82 0 0 0-.813.813v.597c0 .039-.007.034-.029.041-.02.009-.021.018-.048-.011l-.424-.422a.817.817 0 0 0-1.148 0l-.715.713a.82.82 0 0 0 0 1.152l.422.422c.027.029.018.029.011.05-.009.02 0 .027-.039.027h-.601a.82.82 0 0 0-.813.813v1.01c0 .443.37.813.813.813h.601c.039 0 .03.004.039.025.007.02.018.02-.011.048l-.424.422a.82.82 0 0 0 0 1.154l.715.712a.816.816 0 0 0 1.15 0l.424-.422c.027-.029.029-.018.048-.011.021.009.029.002.029.041v.597a.82.82 0 0 0 .813.815h1.008a.82.82 0 0 0 .813-.815v-.597c0-.039.007-.032.029-.041s.018-.018.045.011l.424.422a.82.82 0 0 0 1.152 0l.713-.712a.82.82 0 0 0 0-1.154l-.424-.422c-.027-.027-.014-.029-.007-.048.009-.021 0-.025.039-.025h.601a.82.82 0 0 0 .813-.813v-1.01a.82.82 0 0 0-.813-.813h-.601c-.039 0-.03-.007-.039-.027-.007-.021-.02-.021.007-.05l.424-.422a.82.82 0 0 0 0-1.152l-.713-.713a.82.82 0 0 0-1.152 0l-.424.422c-.027.029-.023.02-.045.011s-.029 0-.029-.041v-.597a.82.82 0 0 0-.813-.813z"/><path fill="#d0e2ee" style="fill:var(--color4, #d0e2ee)" d="M13.752 9.988a2.168 2.168 0 0 0-2.161 2.163c0 1.191.973 2.167 2.161 2.167s2.165-.976 2.165-2.165a2.172 2.172 0 0 0-2.165-2.165z"/><path fill="#3a4d5c" style="fill:var(--color1, #3a4d5c)" d="M11.77 19.718a.474.474 0 0 0-.468.403v.003l-.399 2.776a.475.475 0 0 0 .468.54h4.763a.474.474 0 0 0 .468-.543v.003l-.393-2.776a.474.474 0 0 0-.469-.406h-.001z"/><path fill="#2c3d49" style="fill:var(--color2, #2c3d49)" d="m15.74 19.719-4.438.405-.166 1.153h5.235l-.164-1.153a.517.517 0 0 0-.023-.094l.001.003z"/><path fill="#f5f6e8" style="fill:var(--color5, #f5f6e8)" d="M1.374 18.274v.792c0 .411.125.79.352 1.085.227.306.584.505.987.515H24.79c.406-.01.764-.209.99-.512l.002-.003c.22-.291.352-.66.352-1.059v-.027.001-.794a.474.474 0 0 0-.474-.474H1.373zm7.221 4.221a1.88 1.88 0 0 0-1.609.908l-.375.62c-.356.595.102 1.398.794 1.398h12.7c.692 0 1.144-.804.788-1.398l-.374-.62a1.875 1.875 0 0 0-1.605-.908z"/><path fill="#1f8b95" style="fill:var(--color6, #1f8b95)" d="M23.529 12.596a1.427 1.427 0 0 0-1.418 1.421v11.118c0 .778.64 1.418 1.418 1.418h5.678a1.423 1.423 0 0 0 1.418-1.417v-11.12a1.426 1.426 0 0 0-1.417-1.419z"/><path fill="#3a4d5c" style="fill:var(--color1, #3a4d5c)" d="M30.625 22.54h-8.513v2.596c0 .778.64 1.418 1.418 1.418h5.678a1.423 1.423 0 0 0 1.418-1.417v-2.124z"/><path fill="#f5f6e8" style="fill:var(--color5, #f5f6e8)" d="M26.365 23.95a.474.474 0 0 0-.472.472v.002c0 .261.211.473.472.474h.002a.474.474 0 0 0 .474-.474v-.002a.474.474 0 0 0-.474-.472h-.002zM24.695 17.09a.474.474 0 0 0-.318.139l-.474.47a.472.472 0 0 0 0 .67l.474.472a.471.471 0 0 0 .666 0 .471.471 0 0 0 0-.666l-.139-.139.139-.139a.471.471 0 0 0 0-.666.475.475 0 0 0-.336-.14h-.013.001zM26.563 16.619a.474.474 0 0 0-.418.354l-.001.003-.472 1.891a.473.473 0 0 0 .338.571l.003.001a.473.473 0 0 0 .571-.338l.001-.003.476-1.893a.474.474 0 0 0-.341-.572l-.003-.001a.453.453 0 0 0-.155-.014h.002zM28.01 17.09a.471.471 0 0 0-.322.805l.139.139-.139.139a.471.471 0 0 0 0 .666.472.472 0 0 0 .67 0l.472-.472a.472.472 0 0 0 0-.67l-.472-.47a.475.475 0 0 0-.336-.14h-.013.001z"/><path fill="#aabfd1" style="fill:var(--color3, #aabfd1)" d="M5.603 7.236h2.522a.823.823 0 0 1 .817.814v1.009a.824.824 0 0 1-.817.814h-.597c-.039 0-.029.008-.038.028s-.022.017.006.045l.423.422a.822.822 0 0 1 0 1.152l-.712.712a.818.818 0 0 1-1.152 0l-.422-.423c-.028-.028-.025-.019-.045-.01s-.027.002-.027.042v.597c0 .444-.37.817-.814.817H3.738a.824.824 0 0 1-.814-.817V9.96l2.248.159.785-1.092-.125-1.126z"/><path fill="#d0e2ee" style="fill:var(--color4, #d0e2ee)" d="M2.967 10.299c.351.261.794.419 1.273.419a2.172 2.172 0 0 0 2.163-2.164v-.003c0-.478-.159-.919-.426-1.273l.004.005-.79.508c.167.208.266.473.266.764v.007c0 .669-.543 1.212-1.212 1.212h-.007a1.22 1.22 0 0 1-.708-.224z"/><path fill="#3a4d5c" style="fill:var(--color1, #3a4d5c)" d="M4.238 7.335h.004c.67 0 1.214.543 1.214 1.214v.004c0 .679-.54 1.219-1.217 1.219h-.007A1.212 1.212 0 0 1 3.02 8.56v-.008c0-.679.54-1.217 1.219-1.217zm9.514 3.6a1.21 1.21 0 0 1 1.219 1.216c0 .679-.542 1.221-1.219 1.221h-.007a1.212 1.212 0 0 1-1.212-1.212v-.008c0-.679.542-1.219 1.219-1.219z"/><path fill="#1a767f" style="fill:var(--color7, #1a767f)" d="M23.529 12.598a1.421 1.421 0 0 0-1.347 1l-.003.01c.12-.04.259-.064.403-.066h5.679c.778 0 1.416.644 1.416 1.421v11.118c0 .141-.027.275-.066.404a1.423 1.423 0 0 0 1.014-1.349v-11.12a1.426 1.426 0 0 0-1.417-1.419z"/><path fill="#2c3d49" style="fill:var(--color2, #2c3d49)" d="M22.112 22.541v.946h6.772a.791.791 0 0 1 .794.794v1.8c0 .141-.027.275-.066.404a1.423 1.423 0 0 0 1.014-1.349v-2.595z"/><path fill="#90a8ba" style="fill:var(--color8, #90a8ba)" d="M5.546 7.236h2.579a.823.823 0 0 1 .817.814v1.009a.824.824 0 0 1-.817.814h-.597c-.039 0-.029.008-.038.028s-.022.017.006.045l.423.422a.822.822 0 0 1 0 1.152l-.712.712a.818.818 0 0 1-1.152 0l-.422-.423c-.028-.028-.025-.019-.045-.01s-.027.002-.027.042v.597c0 .444-.37.817-.814.817h-.504v-3.158l1.317-.432.318-.966-.114-.83zm8.209.216v9.399h.504c.444 0 .814-.37.814-.814v-.597c0-.039.008-.034.028-.043s.017-.018.045.011l.423.422a.818.818 0 0 0 1.152-.001l.712-.712a.818.818 0 0 0-.001-1.152l-.422-.422c-.028-.028-.016-.028-.008-.049s-.001-.025.039-.025h.601a.82.82 0 0 0 .813-.814v-1.009a.82.82 0 0 0-.813-.813h-.6c-.04 0-.03-.008-.039-.028s-.021-.021.008-.049l.422-.422a.822.822 0 0 0 0-1.152l-.712-.712a.818.818 0 0 0-1.152.001l-.423.422c-.028.028-.025.019-.045.011s-.027-.002-.027-.043v-.597a.821.821 0 0 0-.814-.814z"/><path fill="#aabfd1" style="fill:var(--color3, #aabfd1)" d="M13.755 9.987v4.33c1.189-.001 2.163-.975 2.163-2.164s-.974-2.164-2.163-2.165z"/><path fill="#2c3d49" style="fill:var(--color2, #2c3d49)" d="M13.755 10.935v2.436h.005c.669 0 1.212-.543 1.212-1.212v-.014c0-.669-.543-1.212-1.212-1.212h-.005z"/><path fill="#e4e5cf" style="fill:var(--color9, #e4e5cf)" d="M8.595 22.495c-.658 0-1.269.343-1.609.908l-.023.038h10.058a1.87 1.87 0 0 1 1.607.908l.374.622a.864.864 0 0 1 .123.451h.98c.692 0 1.144-.804.787-1.398l-.372-.62a1.876 1.876 0 0 0-1.606-.908h-.002z"/><path style="fill:var(--color10, #000)" d="M2.715 5.447c-.404.01-.76.209-.984.511l-.002.003a1.755 1.755 0 0 0-.354 1.061v.026-.001 12.019c0 .411.125.79.354 1.087.227.305.583.502.985.511h8.511l-.263 1.831H8.595c-.658 0-1.269.343-1.609.908l-.375.62c-.356.595.102 1.398.794 1.398h12.7c.692 0 1.144-.804.787-1.398l-.372-.62a1.876 1.876 0 0 0-1.606-.908H16.545l-.261-1.831h4.407a.474.474 0 1 0 .029-.947l-.03.001h.001H2.715c-.077 0-.152-.036-.238-.147-.17-.291-.156-.501-.157-.828h18.371a.474.474 0 1 0 0-.948H2.32V7.045c0-.372.223-.644.395-.653H24.79c.075 0 .156.032.241.143a.853.853 0 0 1 .156.493v.017-.001 4.13a.474.474 0 1 0 .948 0v-4.13c0-.411-.125-.788-.352-1.085a1.275 1.275 0 0 0-.991-.513h-.002zm2.563 1.691a.476.476 0 0 0-.08.664l-.001-.001c.163.207.257.465.257.751 0 .679-.54 1.219-1.217 1.219h-.005c-.278 0-.534-.094-.738-.252l.003.002a.474.474 0 1 0-.579.751l.001.001A2.162 2.162 0 0 0 6.4 8.558v-.004c0-.501-.172-.965-.459-1.334-.309-.252-.477-.209-.663-.08zm2.639 3.231-.422-.424c-.029-.027-.016-.027-.007-.048s0-.023.038-.023h.602a.82.82 0 0 0 .813-.815V8.05a.82.82 0 0 0-.813-.813h-.603a.474.474 0 0 0-.002.946H7.992v.744h-.468a1.003 1.003 0 0 0-.911.605l-.003.007a.999.999 0 0 0 .216 1.08l.329.327-.527.527-.329-.329a.998.998 0 0 0-1.085-.212l.007-.002a1.003 1.003 0 0 0-.611.911v.465h-.744v-.465a.474.474 0 1 0-.948 0v.599c0 .443.37.813.815.813h1.008a.82.82 0 0 0 .813-.813v-.597c0-.039.007-.034.029-.041.02-.009.018-.018.045.011l.422.422a.82.82 0 0 0 1.154 0l.715-.712a.82.82 0 0 0 0-1.154zm5.333-2.916a.823.823 0 0 0-.815.813v.598c0 .039-.005.034-.027.043s-.021.016-.048-.011l-.424-.424a.814.814 0 0 0-1.148.001l-.715.713a.82.82 0 0 0 0 1.152l.422.424c.027.029.018.029.009.048-.007.021.002.029-.036.029h-.602a.82.82 0 0 0-.813.813v1.009c0 .443.37.813.813.813h.601c.039 0 .03.004.038.025.009.021.018.021-.009.048l-.422.422a.82.82 0 0 0 0 1.154l.715.712a.814.814 0 0 0 1.148-.001l.424-.422c.027-.027.027-.018.048-.011.021.009.027.002.027.041v.597a.822.822 0 0 0 .815.815h1.009a.822.822 0 0 0 .813-.815v-.597c0-.039.007-.032.029-.041.02-.009.018-.018.045.011l.424.422a.82.82 0 0 0 1.152 0l.713-.712a.82.82 0 0 0 0-1.154l-.424-.422c-.027-.027-.014-.029-.007-.048.009-.021 0-.025.039-.025h.601a.818.818 0 0 0 .813-.813v-1.01a.82.82 0 0 0-.813-.812h-.601c-.039 0-.03-.007-.039-.029-.007-.021-.02-.021.007-.048l.424-.424a.82.82 0 0 0 0-1.152l-.713-.713a.82.82 0 0 0-1.152 0l-.424.422c-.029.029-.025.02-.045.011-.021-.009-.029-.004-.029-.043v-.595a.823.823 0 0 0-.813-.815zm.132.947h.744v.463c0 .42.272.774.611.915.34.139.781.084 1.078-.215l.333-.327.524.524-.329.333a.996.996 0 0 0-.214 1.081l-.002-.007c.139.34.495.611.915.611h.468v.747h-.468a1.007 1.007 0 0 0-.913.605l-.003.007a.998.998 0 0 0 .217 1.078l.329.329-.527.526-.329-.327a.998.998 0 0 0-1.085-.212l.007-.002a1.003 1.003 0 0 0-.611.911v.469h-.744v-.467a1.003 1.003 0 0 0-.605-.913l-.007-.002a.999.999 0 0 0-1.08.216l-.327.327-.527-.526.329-.329a.997.997 0 0 0 .21-1.085l.002.007a.998.998 0 0 0-.911-.611h-.469v-.747h.468a.997.997 0 0 0 .909-.605l.002-.007a.992.992 0 0 0-.215-1.074l-.331-.333.531-.524.327.329a1.002 1.002 0 0 0 1.086.211l-.007.002c.36-.156.608-.506.611-.915v-.001zm.37 1.588c-1.191 0-2.161.976-2.161 2.165s.971 2.163 2.161 2.163c1.189 0 2.165-.974 2.165-2.163s-.976-2.165-2.165-2.165zm0 .947c.679 0 1.217.54 1.217 1.217 0 .679-.54 1.219-1.217 1.219h-.007a1.212 1.212 0 0 1-1.212-1.212v-.008c0-.679.54-1.219 1.219-1.219zm9.777 1.661a1.427 1.427 0 0 0-1.418 1.421v11.118c0 .778.64 1.416 1.418 1.416h5.678a1.424 1.424 0 0 0 1.418-1.416v-11.12a1.426 1.426 0 0 0-1.417-1.419zm0 .948h5.683c.257 0 .465.208.465.465v8.52h-6.624v-8.511c0-.268.207-.476.476-.476zm2.616 3.43-.472 1.893a.473.473 0 0 0 .338.571l.003.001a.473.473 0 0 0 .571-.338l.001-.003.476-1.893a.474.474 0 0 0-.341-.572l-.003-.001c-.286-.064-.477.059-.572.341zm-1.768.256-.474.47a.472.472 0 0 0 0 .67l.474.472a.476.476 0 0 0 .667 0 .471.471 0 0 0 0-.666l-.139-.139.139-.139a.471.471 0 0 0 0-.666c-.268-.204-.488-.166-.667 0zm3.311 0a.471.471 0 0 0 0 .666l.139.139-.139.139a.474.474 0 0 0 .671.667l.47-.472a.472.472 0 0 0 0-.67l-.47-.47c-.272-.206-.492-.166-.67 0zm-15.511 3.434h3.15l.261 1.831h-3.672zm-3.582 2.777h10.317c.329 0 .629.172.797.451l.349.585H7.449l.35-.585a.93.93 0 0 1 .796-.451zm14.459.035h6.624v1.659c0 .266-.204.47-.47.47h-5.689a.465.465 0 0 1-.465-.465v-.006zm3.311.474a.474.474 0 0 0 .001.948h.001a.474.474 0 1 0 0-.948z"/></symbol></defs></svg>